<svg width="48" height="28" viewBox="0 0 48 28" fill="none" xmlns="http://www.w3.org/2000/svg">
<path d="M24 0C13.7144 0 4.87372 5.79604 0 13.9249C4.86962 22.0464 13.7062 27.8498 24 27.8498C34.2864 27.8498 43.1263 22.0538 48 13.9249C43.1296 5.80341 34.2938 0 24 0ZM3.84983 13.9249C5.24232 11.959 9.33788 7.12628 15.8089 4.75085C13.3515 6.96246 11.7133 10.2389 11.7133 13.9249C11.7133 17.6109 13.3515 20.8874 15.8908 23.099C9.33788 20.7235 5.32423 15.8908 3.84983 13.9249ZM32.1092 23.099C34.6485 20.8874 36.2867 17.6109 36.2867 13.9249C36.2867 10.2389 34.6485 6.96246 32.1092 4.75085C38.6621 7.20819 42.6749 11.959 44.0683 13.9249C42.6758 15.8908 38.6621 20.7235 32.1092 23.099Z" fill="#B10230"/>
</svg>
