<svg width="21" height="21" viewBox="0 0 21 21" fill="none" xmlns="http://www.w3.org/2000/svg">
<path d="M12.7098 12.8527C13.3795 12.183 13.7143 11.375 13.7143 10.4286C13.7143 9.48214 13.3795 8.67411 12.7098 8.00446C12.0402 7.33482 11.2321 7 10.2857 7C9.33929 7 8.53125 7.33482 7.86161 8.00446C7.19196 8.67411 6.85714 9.48214 6.85714 10.4286C6.85714 11.375 7.19196 12.183 7.86161 12.8527C8.53125 13.5223 9.33929 13.8571 10.2857 13.8571C11.2321 13.8571 12.0402 13.5223 12.7098 12.8527ZM14.0223 6.69196C15.0491 7.71875 15.5625 8.96429 15.5625 10.4286C15.5625 11.8929 15.0491 13.1384 14.0223 14.1652C12.9955 15.192 11.75 15.7054 10.2857 15.7054C8.82143 15.7054 7.57589 15.192 6.54911 14.1652C5.52232 13.1384 5.00893 11.8929 5.00893 10.4286C5.00893 8.96429 5.52232 7.71875 6.54911 6.69196C7.57589 5.66518 8.82143 5.15178 10.2857 5.15178C11.75 5.15178 12.9955 5.66518 14.0223 6.69196ZM16.6473 4.06696C16.8884 4.30804 17.0089 4.59821 17.0089 4.9375C17.0089 5.27678 16.8884 5.56696 16.6473 5.80803C16.4063 6.04911 16.1161 6.16964 15.7768 6.16964C15.4375 6.16964 15.1473 6.04911 14.9062 5.80803C14.6652 5.56696 14.5446 5.27678 14.5446 4.9375C14.5446 4.59821 14.6652 4.30804 14.9062 4.06696C15.1473 3.82589 15.4375 3.70536 15.7768 3.70536C16.1161 3.70536 16.4063 3.82589 16.6473 4.06696ZM11.3036 1.99107C10.6875 1.99107 10.3482 1.99107 10.2857 1.99107C10.2232 1.99107 9.87946 1.99107 9.25446 1.99107C8.63839 1.98214 8.16964 1.98214 7.84821 1.99107C7.52679 1.99107 7.09375 2.00446 6.54911 2.03125C6.01339 2.04911 5.55357 2.09375 5.16964 2.16518C4.79464 2.22768 4.47768 2.30803 4.21875 2.40625C3.77232 2.58482 3.37946 2.84375 3.04018 3.18303C2.70089 3.52232 2.44196 3.91518 2.26339 4.36161C2.16518 4.62054 2.08036 4.94196 2.00893 5.32589C1.94643 5.70089 1.90179 6.16071 1.875 6.70536C1.85714 7.24107 1.84375 7.66964 1.83482 7.99107C1.83482 8.3125 1.83482 8.78571 1.83482 9.41071C1.84375 10.0268 1.84821 10.3661 1.84821 10.4286C1.84821 10.4911 1.84375 10.8348 1.83482 11.4598C1.83482 12.0759 1.83482 12.5446 1.83482 12.8661C1.84375 13.1875 1.85714 13.6205 1.875 14.1652C1.90179 14.7009 1.94643 15.1607 2.00893 15.5446C2.08036 15.9196 2.16518 16.2366 2.26339 16.4955C2.44196 16.942 2.70089 17.3348 3.04018 17.6741C3.37946 18.0134 3.77232 18.2723 4.21875 18.4509C4.47768 18.5491 4.79464 18.6339 5.16964 18.7054C5.55357 18.7679 6.01339 18.8125 6.54911 18.8393C7.09375 18.8571 7.52679 18.8705 7.84821 18.8795C8.16964 18.8795 8.63839 18.8795 9.25446 18.8795C9.87946 18.8705 10.2232 18.8661 10.2857 18.8661C10.3482 18.8661 10.6875 18.8705 11.3036 18.8795C11.9286 18.8795 12.4018 18.8795 12.7232 18.8795C13.0446 18.8705 13.4732 18.8571 14.0089 18.8393C14.5536 18.8125 15.0134 18.7679 15.3884 18.7054C15.7723 18.6339 16.0938 18.5491 16.3527 18.4509C16.7991 18.2723 17.192 18.0134 17.5313 17.6741C17.8705 17.3348 18.1295 16.942 18.308 16.4955C18.4063 16.2366 18.4866 15.9196 18.5491 15.5446C18.6205 15.1607 18.6652 14.7009 18.683 14.1652C18.7098 13.6205 18.7232 13.1875 18.7232 12.8661C18.7321 12.5446 18.7321 12.0759 18.7232 11.4598C18.7232 10.8348 18.7232 10.4911 18.7232 10.4286C18.7232 10.3661 18.7232 10.0268 18.7232 9.41071C18.7321 8.78571 18.7321 8.3125 18.7232 7.99107C18.7232 7.66964 18.7098 7.24107 18.683 6.70536C18.6652 6.16071 18.6205 5.70089 18.5491 5.32589C18.4866 4.94196 18.4063 4.62054 18.308 4.36161C18.1295 3.91518 17.8705 3.52232 17.5313 3.18303C17.192 2.84375 16.7991 2.58482 16.3527 2.40625C16.0938 2.30803 15.7723 2.22768 15.3884 2.16518C15.0134 2.09375 14.5536 2.04911 14.0089 2.03125C13.4732 2.00446 13.0446 1.99107 12.7232 1.99107C12.4018 1.98214 11.9286 1.98214 11.3036 1.99107ZM20.5045 6.18303C20.5491 6.96875 20.5714 8.38393 20.5714 10.4286C20.5714 12.4732 20.5491 13.8884 20.5045 14.6741C20.4152 16.5312 19.8616 17.9687 18.8438 18.9866C17.8259 20.0045 16.3884 20.558 14.5312 20.6473C13.7455 20.692 12.3304 20.7143 10.2857 20.7143C8.24107 20.7143 6.82589 20.692 6.04018 20.6473C4.18304 20.558 2.74554 20.0045 1.72768 18.9866C0.709821 17.9687 0.15625 16.5312 0.0669643 14.6741C0.0223214 13.8884 0 12.4732 0 10.4286C0 8.38393 0.0223214 6.96875 0.0669643 6.18303C0.15625 4.32589 0.709821 2.88839 1.72768 1.87053C2.74554 0.852677 4.18304 0.299106 6.04018 0.209821C6.82589 0.165178 8.24107 0.142856 10.2857 0.142856C12.3304 0.142856 13.7455 0.165178 14.5312 0.209821C16.3884 0.299106 17.8259 0.852677 18.8438 1.87053C19.8616 2.88839 20.4152 4.32589 20.5045 6.18303Z" fill="#363636"/>
</svg>
