<svg width="107" height="71" viewBox="0 0 107 71" fill="none" xmlns="http://www.w3.org/2000/svg">
<path d="M54.5571 45.1736C54.5571 59.4371 66.1187 71 80.3835 71C94.6483 71 105.002 59.8356 106.21 45.6227C108.054 23.9352 91.5783 5.77692 71.5757 -9.15527e-05C78.3937 4.12237 83.1499 11.2921 83.9431 19.6306C82.7755 19.4649 81.5941 19.3472 80.3835 19.3472C66.1187 19.3472 54.5571 30.9088 54.5571 45.1736Z" fill="white" fill-opacity="0.5"/>
<path d="M2.28882e-05 45.1736C2.28882e-05 59.4371 11.5616 71 25.8277 71C40.0912 71 50.446 59.8356 51.6553 45.6227C53.4996 23.9352 37.0237 5.77692 17.0199 -9.15527e-05C23.8379 4.12237 28.5928 11.2921 29.3872 19.6306C28.2197 19.4649 27.037 19.3472 25.8277 19.3472C11.5616 19.3472 2.28882e-05 30.9088 2.28882e-05 45.1736Z" fill="white" fill-opacity="0.5"/>
</svg>
