<svg width="25" height="30" viewBox="0 0 25 30" fill="none" xmlns="http://www.w3.org/2000/svg">
<path d="M19.9286 9.85714C22.6714 9.85714 24.8571 7.67143 24.8571 4.92857C24.8571 2.18571 22.6714 0 19.9286 0C17.1857 0 15 2.18571 15 4.92857C15 5.4 15.0857 5.82857 15.1714 6.25714L7.88571 11.0571C7.07143 10.4143 6.04286 10.0714 4.92857 10.0714C2.18571 10.0714 0 12.2571 0 15C0 17.7429 2.18571 19.9286 4.92857 19.9286C6.04286 19.9286 7.07143 19.5429 7.88571 18.9429L15.1714 23.7429C15.0429 24.1714 14.9571 24.6429 14.9571 25.1143C15 27.8143 17.1857 30 19.9286 30C22.6714 30 24.8571 27.8143 24.8571 25.0714C24.8571 22.3286 22.6714 20.1429 19.9286 20.1429C18.6 20.1429 17.4 20.6571 16.5429 21.5143L9.47143 16.8857C9.72857 16.2857 9.85714 15.6857 9.85714 15C9.85714 14.3143 9.72857 13.6714 9.47143 13.1143L16.5 8.48571C17.4 9.34286 18.6 9.85714 19.9286 9.85714Z" fill="white"/>
</svg>
