<svg width="27" height="16" viewBox="0 0 27 16" fill="none" xmlns="http://www.w3.org/2000/svg">
<path d="M26.6741 1.39286C26.8795 1.96429 26.2098 3.27679 24.6652 5.33036C24.4509 5.61607 24.1607 5.99554 23.7946 6.46875C23.4375 6.92411 23.192 7.24554 23.058 7.43304C22.9241 7.62054 22.7857 7.84375 22.6429 8.10268C22.5089 8.35268 22.4554 8.54018 22.4821 8.66518C22.5179 8.78125 22.5759 8.93304 22.6563 9.12054C22.7455 9.30804 22.8929 9.5 23.0982 9.69643C23.3036 9.89286 23.558 10.1295 23.8616 10.4062C23.8973 10.4241 23.9196 10.442 23.9286 10.4598C25.1875 11.6295 26.0402 12.6161 26.4866 13.4196C26.5134 13.4643 26.5402 13.5223 26.567 13.5937C26.6027 13.6562 26.6339 13.7723 26.6607 13.942C26.6964 14.1116 26.6964 14.2634 26.6607 14.3973C26.625 14.5312 26.5134 14.6562 26.3259 14.7723C26.1384 14.8795 25.875 14.933 25.5357 14.933L22.1071 14.9866C21.8929 15.0313 21.6429 15.0089 21.3571 14.9196C21.0714 14.8304 20.8393 14.7321 20.6607 14.625L20.3929 14.4643C20.125 14.2768 19.8125 13.9911 19.4554 13.6071C19.0982 13.2232 18.7902 12.8795 18.5313 12.5759C18.2813 12.2634 18.0089 12.0045 17.7143 11.7991C17.4286 11.5848 17.1786 11.5134 16.9643 11.5848C16.9375 11.5937 16.9018 11.6116 16.8571 11.6384C16.8125 11.6562 16.7366 11.7187 16.6295 11.8259C16.5223 11.933 16.4241 12.067 16.3348 12.2277C16.2545 12.3795 16.1786 12.6116 16.1071 12.9241C16.0446 13.2277 16.0179 13.5714 16.0268 13.9554C16.0268 14.0893 16.0089 14.2143 15.9732 14.3304C15.9464 14.4375 15.9152 14.5179 15.8795 14.5714L15.8259 14.6384C15.6652 14.808 15.4286 14.9062 15.1161 14.933H13.5759C12.942 14.9687 12.2902 14.8973 11.6205 14.7187C10.9509 14.5312 10.3616 14.2946 9.85268 14.0089C9.35268 13.7143 8.89286 13.4196 8.47321 13.125C8.0625 12.8214 7.75 12.5625 7.53571 12.3482L7.20089 12.0268C7.11161 11.9375 6.98661 11.8036 6.82589 11.625C6.67411 11.4464 6.35714 11.0402 5.875 10.4062C5.39286 9.77232 4.91964 9.09821 4.45536 8.38393C3.99107 7.66964 3.44196 6.72768 2.80804 5.55804C2.18304 4.38839 1.60268 3.17411 1.06696 1.91518C1.01339 1.77232 0.986607 1.65179 0.986607 1.55357C0.986607 1.45536 1 1.38393 1.02679 1.33928L1.08036 1.25893C1.21429 1.08928 1.46875 1.00446 1.84375 1.00446L5.51339 0.977677C5.62054 0.995535 5.72321 1.02678 5.82143 1.07143C5.91964 1.10714 5.99107 1.14286 6.03571 1.17857L6.10268 1.21875C6.24554 1.31696 6.35268 1.45982 6.42411 1.64732C6.60268 2.09375 6.80804 2.55804 7.04018 3.04018C7.27232 3.51339 7.45536 3.875 7.58929 4.125L7.80357 4.51339C8.0625 5.04911 8.3125 5.51339 8.55357 5.90625C8.79464 6.29911 9.00893 6.60714 9.19643 6.83036C9.39286 7.04464 9.58036 7.21429 9.75893 7.33929C9.9375 7.46429 10.0893 7.52679 10.2143 7.52679C10.3393 7.52679 10.4598 7.50446 10.5759 7.45982C10.5938 7.45089 10.6161 7.42857 10.6429 7.39286C10.6696 7.35714 10.7232 7.25893 10.8036 7.09821C10.8839 6.9375 10.942 6.72768 10.9777 6.46875C11.0223 6.20982 11.067 5.84821 11.1116 5.38393C11.1563 4.91964 11.1563 4.36161 11.1116 3.70982C11.0938 3.35268 11.0536 3.02679 10.9911 2.73214C10.9286 2.4375 10.8661 2.23214 10.8036 2.11607L10.7232 1.95536C10.5 1.65179 10.1205 1.45982 9.58482 1.37946C9.46875 1.36161 9.49107 1.25446 9.65179 1.05803C9.79464 0.888392 9.96429 0.754464 10.1607 0.65625C10.6339 0.424107 11.7009 0.316964 13.3616 0.334821C14.0938 0.34375 14.6964 0.401785 15.1696 0.508927C15.3482 0.553571 15.4955 0.616071 15.6116 0.696427C15.7366 0.767857 15.8304 0.875 15.8929 1.01786C15.9554 1.15179 16 1.29464 16.0268 1.44643C16.0625 1.58928 16.0804 1.79018 16.0804 2.04911C16.0804 2.30804 16.0759 2.55357 16.067 2.78571C16.058 3.01786 16.0446 3.33482 16.0268 3.73661C16.0179 4.12946 16.0134 4.49554 16.0134 4.83482C16.0134 4.93304 16.0089 5.12054 16 5.39732C15.9911 5.67411 15.9866 5.88839 15.9866 6.04018C15.9955 6.19196 16.0134 6.375 16.0402 6.58929C16.067 6.79464 16.1161 6.96875 16.1875 7.11161C16.2679 7.24554 16.3705 7.35268 16.4955 7.43304C16.567 7.45089 16.6429 7.46875 16.7232 7.48661C16.8036 7.50446 16.9196 7.45536 17.0714 7.33929C17.2232 7.22321 17.3929 7.07143 17.5804 6.88393C17.7679 6.6875 18 6.38839 18.2768 5.98661C18.5536 5.57589 18.8571 5.09375 19.1875 4.54018C19.7232 3.61161 20.2009 2.60714 20.6205 1.52678C20.6563 1.4375 20.7009 1.36161 20.7545 1.29911C20.808 1.22768 20.8571 1.17857 20.9018 1.15178L20.9554 1.11161C20.9732 1.10268 20.9955 1.09375 21.0223 1.08482C21.0491 1.06696 21.1071 1.05357 21.1964 1.04464C21.2857 1.02678 21.375 1.02232 21.4643 1.03125L25.3214 1.00446C25.6696 0.959821 25.9554 0.973214 26.1786 1.04464C26.4018 1.10714 26.5402 1.17857 26.5938 1.25893L26.6741 1.39286Z" fill="#0A1091"/>
</svg>
